<?xml version="1.0" standalone="no"?>
<!DOCTYPE svg PUBLIC "-//W3C//DTD SVG 20010904//EN"
 "http://www.w3.org/TR/2001/REC-SVG-20010904/DTD/svg10.dtd">
<svg version="1.0" xmlns="http://www.w3.org/2000/svg"
 width="512.000000pt" height="512.000000pt" viewBox="0 0 512.000000 512.000000"
 preserveAspectRatio="xMidYMid meet">

<g transform="translate(0.000000,512.000000) scale(0.100000,-0.100000)"
fill="#000000" stroke="none">
<path d="M1 3918 c1 -736 5 -1168 10 -1113 115 1212 1090 2187 2304 2304 56 5
-366 9 -1112 10 l-1203 1 1 -1202z"/>
<path d="M2750 5113 c231 -22 401 -55 587 -114 808 -259 1430 -894 1678 -1713
39 -131 81 -343 94 -481 5 -55 9 377 10 1113 l1 1202 -1202 -2 c-662 0 -1187
-3 -1168 -5z"/>
<path d="M2340 4789 c-970 -92 -1780 -825 -1975 -1786 -146 -723 71 -1464 584
-1996 401 -415 931 -656 1506 -683 156 -7 185 -15 224 -59 70 -80 42 -209 -54
-251 -25 -11 174 -13 1233 -14 l1262 0 -1 1203 c-1 735 -5 1167 -10 1112 -51
-539 -283 -1062 -652 -1471 -96 -107 -128 -131 -182 -139 -85 -13 -175 65
-175 152 0 58 20 94 94 174 250 265 441 610 531 955 54 207 69 331 69 574 0
243 -15 367 -69 574 -142 544 -514 1042 -1000 1338 -413 252 -900 363 -1385
317z m467 -655 c52 -39 68 -71 68 -134 0 -94 -50 -145 -155 -160 -102 -14
-146 -58 -160 -160 -15 -105 -66 -155 -160 -155 -63 0 -95 16 -134 69 -17 23
-21 41 -19 104 4 210 146 389 356 447 71 20 169 15 204 -11z m-72 -923 c60
-26 132 -95 163 -156 18 -37 26 -70 29 -125 4 -72 -4 -107 -186 -783 -146
-543 -188 -714 -181 -732 11 -28 47 -55 75 -55 11 0 103 48 205 107 205 118
245 130 314 98 98 -47 116 -188 34 -261 -34 -30 -513 -305 -561 -322 -68 -23
-167 -18 -237 14 -77 34 -151 113 -176 186 -35 103 -32 120 169 869 103 383
187 705 187 716 0 11 -9 32 -21 47 -31 40 -69 34 -173 -26 -73 -41 -100 -51
-136 -51 -55 -1 -101 22 -132 65 -32 45 -33 139 -1 183 25 36 344 222 413 242
58 17 158 9 215 -16z m1088 -2585 c103 -43 128 -177 48 -257 -65 -65 -157 -65
-222 0 -124 123 13 325 174 257z"/>
<path d="M1 1203 l-1 -1203 1203 1 c735 1 1167 5 1112 10 -1211 115 -2187
1091 -2304 2304 -5 56 -9 -366 -10 -1112z"/>
</g>
</svg>
